<svg id="Layer_1" data-name="Layer 1" xmlns="http://www.w3.org/2000/svg" viewBox="0 0 197.04 48.77"><defs><style>.cls-1,.cls-2{fill:#06c;}.cls-2{font-size:12px;font-family:Marta;}</style></defs><path class="cls-1" d="M20.15,7.28a6.32,6.32,0,0,1,3.28-1.37q.9-.11.9-.69c0-.25-.23-.38-.7-.38H9.51c-.44,0-.66.19-.66.55,0,.19.21.31.61.38s.86.71,1,1.86V26.88c0,1.1-.32,1.71-1,1.82-.4.07-.61.21-.61.41,0,.37.22.56.66.56h5.9q.66,0,.66-.45c0-.28-.21-.45-.61-.52-.6-.09-.91-.7-.91-1.82V7.63c0-1.24.31-1.86.91-1.86h2.22a.64.64,0,0,1,.48.23.6.6,0,0,1,.22.42,3.33,3.33,0,0,1-.55,1.41,2.8,2.8,0,0,0-.5,1.41,2.2,2.2,0,0,0,1,1.82,4.17,4.17,0,0,0,2.55.76,4.94,4.94,0,0,0,2.36-.51,1.56,1.56,0,0,0,1-1.38c0-1.35-1-2-2.87-2-1.41,0-2.12.53-2.12,1.58s.54,1.4,1.62,1.45c-1.55,0-2.32-.44-2.32-1.24A3.37,3.37,0,0,1,20.15,7.28Z"/><path class="cls-1" d="M47.86,5.56A7.58,7.58,0,0,0,43.5,4.39,8,8,0,0,0,38.86,5.7a3.76,3.76,0,0,0-1.92,3.13v18c0,1.12-.3,1.76-.91,1.89-.4.07-.6.2-.6.38,0,.35.22.52.65.52H42c.44,0,.66-.13.66-.38s-.2-.45-.6-.52c-.61-.09-.91-.72-.91-1.89V24a4.79,4.79,0,0,0,2.77.83A6.24,6.24,0,0,0,47.1,24a2.25,2.25,0,0,0,1.29-2,1.83,1.83,0,0,0-.76-1.48,3,3,0,0,0-2-.62,3,3,0,0,0-1.71.45,1.34,1.34,0,0,0-.66,1.17A1.45,1.45,0,0,0,44,22.81a2.61,2.61,0,0,0,1.49.5,2,2,0,0,0,.77-.11,1.46,1.46,0,0,0,.49-.41c-.14.71-1.05,1.06-2.73,1.06a4.32,4.32,0,0,1-2-.47,1.43,1.43,0,0,1-.88-1.24,5.86,5.86,0,0,1,.12-1.24,2.26,2.26,0,0,1,.53-1c.27-.3.49-.53.66-.7a3.47,3.47,0,0,1,1-.59l1.11-.45c.22-.07.69-.23,1.41-.44l1.44-.43c1.41-.46,2.12-1.26,2.12-2.41V8.56A3.54,3.54,0,0,0,47.86,5.56Zm-3,9.32a4.54,4.54,0,0,1-.25,1.76,2.4,2.4,0,0,1-1.36.92,11.25,11.25,0,0,0-2.17,1.07V6.6c0-.81.62-1.21,1.86-1.21s1.92.4,1.92,1.21Z"/><path class="cls-1" d="M70.78,5.91A3,3,0,0,1,70.93,5l.15-.49,0-.14a12.33,12.33,0,0,0-7.81,4.3,9.91,9.91,0,0,0-2.58,6.4q0,2.72,2.12,7.46c1.44,3.12,2.17,5.25,2.17,6.39v.9A12.16,12.16,0,0,0,72.75,25a10.78,10.78,0,0,0,2.47-6.71c0-1.21-.68-3.23-2-6.05A24.83,24.83,0,0,1,70.78,5.91Zm-.33,19a7.48,7.48,0,0,1-2.09,2.71,25.34,25.34,0,0,0-1.56-5.85q-2.88-6-2.88-9.15a7.43,7.43,0,0,1,.86-2.82,5.17,5.17,0,0,1,2.16-2.58v.24a10.3,10.3,0,0,0,1.27,5.2q3.23,5.88,3.22,9.18A7.14,7.14,0,0,1,70.45,24.9Z"/><path class="cls-1" d="M134.66,5.77c.41-.07.61-.23.61-.48s-.24-.45-.71-.45h-4.94v.55a7.55,7.55,0,0,0-3.93-1,6.18,6.18,0,0,0-3.23.85,2.39,2.39,0,0,0-1.41,2q0,2.13,2.67,2.13c1.58,0,2.37-.57,2.37-1.72a1.46,1.46,0,0,0-.56-1.13,2,2,0,0,0-1.41-.48,3.11,3.11,0,0,0-.9.13,3.49,3.49,0,0,1,2.11-.62,7.67,7.67,0,0,1,3,.54q1.26.53,1.26,1.53a3.45,3.45,0,0,1-.71,2.2,18.3,18.3,0,0,1-2.67,2.47,22.16,22.16,0,0,0-4.49,4.51,7.92,7.92,0,0,0-.8,4v6.05c0,1.12-.31,1.73-.91,1.82-.4.07-.61.2-.61.38,0,.39.22.59.66.59H126c.43,0,.65-.15.65-.45s-.2-.45-.6-.52c-.64-.11-1-.72-1-1.82V24.1h4.54v2.78c0,1-.32,1.64-1,1.82-.44.1-.66.27-.66.52s.24.45.71.45h5.85c.47,0,.71-.15.71-.45s-.2-.45-.61-.52c-.6-.09-.9-.7-.9-1.82V7.63C133.76,6.51,134.06,5.88,134.66,5.77Zm-5,17.43h-4.54V19.28q0-3.36,4.54-7.87Z"/><path class="cls-1" d="M162.83,28.81h-2.72c-.61,0-.91-.64-.91-1.93V7.63c0-1.12.3-1.75.91-1.86.44,0,.65-.19.65-.52s-.21-.41-.65-.41h-5v.59a7.64,7.64,0,0,0-3.84-1,6.08,6.08,0,0,0-3.22.86,2.46,2.46,0,0,0-1.42,2.07c0,1.39.89,2.1,2.68,2.1A2.91,2.91,0,0,0,151,9a1.4,1.4,0,0,0,.66-1.18,1.6,1.6,0,0,0-.58-1.19,2,2,0,0,0-1.44-.53,2.72,2.72,0,0,0-.91.17,3.58,3.58,0,0,1,2.07-.59,7.08,7.08,0,0,1,2.77.64c1,.42,1.52.9,1.52,1.43a3.45,3.45,0,0,1-.16,1.06,4.9,4.9,0,0,1-.32.86,3.87,3.87,0,0,1-.61.81,8.3,8.3,0,0,1-.63.65c-.13.13-.4.36-.8.69l-.76.63c-2,1.73-3.2,2.82-3.63,3.27a5.63,5.63,0,0,0-1.71,3.72v7.49a2.17,2.17,0,0,1-.44,1.36,1.43,1.43,0,0,1-1.23.57h-2.27c-.6,0-.91.17-.91.51s.2.3.61.35a3.64,3.64,0,0,1,2.72,1.56,6.92,6.92,0,0,1,1.26,2.94c0,.3.22.45.56.45s.55-.15.55-.45v-4.5h10.64v4.5c0,.3.18.45.55.45s.56-.15.56-.45a4.9,4.9,0,0,1,1.06-2.9,3.7,3.7,0,0,1,2.87-1.6q.66,0,.66-.48C163.64,29,163.37,28.87,162.83,28.81Zm-7.76-1.93c0,1.29-.37,1.93-1.11,1.93h-2.27c-.74,0-1.11-.64-1.11-1.93V19.39q0-3.48,4.49-7.88Z"/><path class="cls-1" d="M187.58,28.7c-.6-.09-.91-.7-.91-1.82V7.63c0-1.12.31-1.75.91-1.86.41-.07.61-.23.61-.48s-.24-.45-.71-.45h-4.94v.55a7.55,7.55,0,0,0-3.93-1,6.18,6.18,0,0,0-3.23.85,2.39,2.39,0,0,0-1.41,2q0,2.13,2.67,2.13c1.58,0,2.37-.57,2.37-1.72a1.43,1.43,0,0,0-.56-1.13A2,2,0,0,0,177,6.05a3.11,3.11,0,0,0-.9.13,3.51,3.51,0,0,1,2.11-.62,7.67,7.67,0,0,1,3,.54q1.26.53,1.26,1.53a3.51,3.51,0,0,1-.7,2.2,19.08,19.08,0,0,1-2.68,2.47,22.16,22.16,0,0,0-4.49,4.51,7.92,7.92,0,0,0-.8,4v6.05c0,1.12-.31,1.73-.91,1.82-.4.07-.61.2-.61.38,0,.39.22.59.66.59h5.9q.66,0,.66-.45c0-.28-.21-.45-.61-.52-.64-.11-1-.72-1-1.82V24.1h4.54v2.78c0,1-.32,1.64-1,1.82-.44.1-.65.27-.65.52s.23.45.7.45h5.85c.47,0,.71-.15.71-.45S188,28.77,187.58,28.7Zm-5-5.5H178V19.28q0-3.36,4.54-7.87Z"/><path class="cls-1" d="M109.85,11.41V6.28l1.26-.56c.2-.11.32-.23.34-.38a.36.36,0,0,0-.38-.4h-6.73c-.23,0-.34.12-.34.36s.13.27.38.42l1.14.45V8.24a3.51,3.51,0,0,0-1.41-1.45,3.65,3.65,0,0,0-1.74-.51,2.37,2.37,0,0,0-1.81.85,2.86,2.86,0,0,0-.85,2.14,2.85,2.85,0,0,0,.71,1.91,1.94,1.94,0,0,0,1.74,1,1.91,1.91,0,0,0,1.55-.73,2.15,2.15,0,0,0,.6-1.42A1.61,1.61,0,0,0,103,8.47a1,1,0,0,1,.67-.3,1.83,1.83,0,0,1,1.25.6,2.07,2.07,0,0,1,.56,1.23,6.32,6.32,0,0,1-1.41,3.68,43.09,43.09,0,0,1-3.18,3.7c-.46.49-.9,1-1.33,1.5a10.7,10.7,0,0,1-.6-3.17.68.68,0,0,1,0-.56v-.23c0-.26-.07-.65,0-.83v-.38c-.18,0-.06-.21-.1-.32h.1c.09-.86.78-6.12.83-7,0-.25-.06-.62,0-.79a3.35,3.35,0,0,0-1.48-2.27A3.43,3.43,0,0,0,97,5.58c.12.17,0,.54,0,.79.06.9.74,6.16.84,7,.17,0,.06.22.09.32h-.09v.38c.1.18,0,.57,0,.83v.23a.68.68,0,0,1,0,.56,12.45,12.45,0,0,1-.6,3.22c-.43-.53-.88-1-1.36-1.55a43.09,43.09,0,0,1-3.18-3.7A6.32,6.32,0,0,1,91.33,10a2.07,2.07,0,0,1,.56-1.23,1.83,1.83,0,0,1,1.25-.6,1,1,0,0,1,.67.3A1.61,1.61,0,0,0,92.54,10a2.15,2.15,0,0,0,.6,1.42,2,2,0,0,0,3.29-.24,2.9,2.9,0,0,0,.71-1.91,2.86,2.86,0,0,0-.85-2.14,2.37,2.37,0,0,0-1.81-.85,3.65,3.65,0,0,0-1.74.51,3.51,3.51,0,0,0-1.41,1.45V6.17l1.14-.45c.25-.15.38-.3.38-.42s-.11-.36-.34-.36H85.78a.37.37,0,0,0-.38.4c0,.15.14.27.34.38L87,6.28V28.69l-1.68.57a.42.42,0,0,0-.21.33c0,.31.17.46.43.46h5.79V14h.11a20.08,20.08,0,0,0,1.23,2.15l1.56,2.6a16,16,0,0,1,1.28,2.9,8.87,8.87,0,0,1,.6,3.18,6.48,6.48,0,0,1-.36,2.37,5.76,5.76,0,0,1-.63,1.13c-.05.06.1.12.37.17a7.41,7.41,0,0,0,1.84,3.06l.16.13c-.23.8-.53,2.4-.64,2.47a7.79,7.79,0,0,0,1.25,2.65v-1.6h.49v1.6a8,8,0,0,0,1.24-2.65c-.11-.07-.32-1.67-.55-2.45a9.33,9.33,0,0,0,2.14-3.22c.23-.05.36-.1.31-.16a5.76,5.76,0,0,1-.63-1.13,6.7,6.7,0,0,1-.36-2.37,8.87,8.87,0,0,1,.6-3.18,16,16,0,0,1,1.28-2.9c.55-.92,1.06-1.79,1.56-2.6A20.08,20.08,0,0,0,105.41,14h.11v16.1h5.79c.27,0,.41-.15.43-.46a.42.42,0,0,0-.21-.33l-1.68-.57V11.41m-11.43,9,0-.08h.11A.24.24,0,0,1,98.42,20.37Z"/><text class="cls-2" transform="translate(156.58 42.38)">ли 1996</text></svg>